<svg width="1920" height="1631" viewBox="0 0 1920 1631" fill="none" xmlns="http://www.w3.org/2000/svg">
<path d="M3751.82 1C3511.24 165.226 3259.72 315.651 2990.19 426.136C2902.81 461.959 2813.01 493.689 2719.65 507.883C2529.26 536.83 2336.19 491.624 2143.7 485.559C1899.24 477.847 1653.4 535.821 1437.02 649.541C1274.21 735.116 1091.04 859.239 906.866 890.389C739.556 918.685 559.57 764.723 411.406 704.65C259.647 643.128 89.9127 630.023 -70.3584 661.672C-154.321 678.256 -235.987 707.109 -311.287 747.861C-383.293 786.839 -446.021 859.378 -531.387 802.367C-559.603 783.522 -579.109 754.483 -603.359 730.744C-687.634 648.254 -835.009 641.806 -926.162 716.63" stroke="#2EA7E0" stroke-width="0.552088" stroke-miterlimit="10"/>
<path d="M3741.2 6.14954C3506.1 172.579 3257.17 324.581 2989.12 434.66C2899.87 471.376 2808.18 502.143 2713.17 517.985C2598.54 536.946 2482.7 529.918 2366.5 519.922C2287.18 513.102 2207.68 504.892 2128.26 502.596C1971.38 498.073 1813.94 517.649 1663.84 558.876C1576.07 582.986 1490.83 614.519 1409.6 653.16C1352.53 680.169 1293.19 711.458 1232.32 741.924C1146.73 784.647 1058.09 825.701 968.027 851.991C935.695 861.466 903.188 869.039 870.647 874.014C736.121 894.494 593.617 807.76 465.435 743.953C431.073 726.766 397.743 711.226 365.84 699.838C234.712 652.603 91.7088 640.751 -46.7019 661.324C-70.5338 664.861 -94.2382 669.361 -117.745 674.812C-201.569 694.237 -283.165 725.618 -359.126 767.785C-404.111 792.765 -445.837 829.945 -491.738 841.693C-520 848.929 -549.712 846.39 -582.763 825.724C-611.64 807.667 -632.248 779.765 -657.402 756.837C-744.704 677.131 -893.262 670.103 -987.036 743.965" stroke="#2EA7E0" stroke-width="0.552088" stroke-miterlimit="10"/>
<path d="M3730.6 11.2863C3500.96 179.93 3254.62 333.498 2988.05 443.172C2896.92 480.792 2803.33 510.597 2706.69 528.062C2590.58 548.774 2473.02 543.718 2354.99 535.113C2274.39 529.245 2193.56 521.718 2112.81 519.608C1953.3 515.41 1793.24 533.281 1640.65 570.797C1551.43 592.727 1464.8 621.43 1382.15 656.754C1323.95 681.375 1263.63 709.996 1201.87 737.736C1114.93 776.586 1025.08 813.651 933.402 837.529C900.547 846.157 867.507 853.081 834.386 857.627C697.216 876.286 551.94 793.739 421.427 735.069C386.52 719.228 352.633 705.172 320.243 695.036C187.329 653.449 43.9897 646.595 -94.2354 672.016C-118.021 676.377 -141.679 681.711 -165.151 687.95C-248.847 710.217 -330.374 744.126 -406.984 787.72C-452.375 813.558 -494.809 850.923 -541.568 863.251C-570.387 870.847 -600.597 868.69 -634.159 849.091C-663.72 831.823 -685.406 805.069 -711.465 782.942C-801.782 706.018 -951.547 698.411 -1047.92 771.298" stroke="#2EA7E0" stroke-width="0.552088" stroke-miterlimit="10"/>
<path d="M3719.99 16.4246C3495.82 187.272 3252.07 342.429 2986.99 451.685C2893.98 490.198 2798.5 519.04 2700.23 538.152C2582.65 560.627 2463.36 557.531 2343.5 550.317C2261.62 545.412 2179.47 538.57 2097.37 536.621C1935.26 532.76 1772.56 548.914 1617.49 582.708C1526.81 602.469 1438.88 628.563 1354.72 660.339C1295.46 682.721 1234.08 708.513 1171.45 733.539C1083.15 768.516 992.104 801.591 898.817 823.045C865.453 830.827 831.856 837.101 798.178 841.229C658.353 858.068 510.177 780.055 377.461 726.163C341.974 711.748 307.589 699.038 274.688 690.201C140.081 654.041 -3.6991 652.406 -141.715 682.686C-165.466 687.882 -189.078 694.028 -212.504 701.067C-296.061 726.175 -377.518 762.613 -454.778 807.633C-500.574 834.329 -543.704 871.88 -591.333 884.788C-620.708 892.755 -651.417 890.992 -685.501 872.425C-715.746 855.957 -738.511 830.328 -765.474 809.001C-858.819 734.861 -1009.77 726.662 -1108.76 798.598" stroke="#2EA7E0" stroke-width="0.552088" stroke-miterlimit="10"/>
<path d="M3709.38 21.5742C3490.69 194.625 3249.51 351.359 2985.93 460.221C2891.04 499.639 2793.72 527.704 2693.76 548.254C2574.75 572.712 2453.7 571.355 2331.99 565.545C2248.85 561.59 2165.37 555.444 2081.94 553.669C1917.2 550.144 1751.88 564.594 1594.32 594.665C1502.19 612.246 1412.87 635.579 1327.29 663.969C1266.91 684.009 1204.54 707.075 1141.02 729.399C1051.38 760.503 959.111 789.588 864.213 808.619C830.326 815.554 796.184 821.178 761.95 824.878C619.48 839.896 468.51 766.174 333.474 717.304C297.431 704.257 262.535 692.95 229.124 685.412C92.8473 654.68 -51.3851 658.263 -189.216 693.391C-212.932 699.409 -236.497 706.379 -259.877 714.219C-343.294 742.168 -424.694 781.134 -502.603 827.568C-548.805 855.123 -592.631 892.848 -641.129 906.347C-671.061 914.685 -702.281 913.317 -736.863 895.794C-767.804 880.126 -791.636 855.633 -819.503 835.106C-915.875 763.75 -1068.02 754.971 -1169.61 825.933" stroke="#2EA7E0" stroke-width="0.552088" stroke-miterlimit="10"/>
<path d="M3698.78 26.7108C3485.56 201.977 3246.97 360.288 2984.86 468.732C2888.09 509.043 2788.89 536.192 2687.29 558.331C2566.82 584.586 2444.03 585.155 2320.49 580.736C2236.07 577.744 2151.26 572.282 2066.49 570.67C1899.14 567.481 1731.21 580.214 1571.14 606.574C1477.56 621.987 1386.86 642.537 1299.87 667.552C1238.37 685.237 1175.05 705.752 1110.59 725.201C1019.66 752.651 926.093 777.294 829.618 794.133C795.198 800.141 760.534 805.197 725.72 808.467C580.594 821.665 426.852 752.222 289.485 708.396C252.897 696.718 217.468 686.814 183.546 680.575C45.6112 655.236 -99.0849 664.073 -236.73 704.059C-260.4 710.913 -283.919 718.695 -307.275 727.334C-390.553 758.136 -471.895 799.63 -550.453 847.48C-597.062 875.892 -641.595 913.803 -690.952 927.882C-721.44 936.591 -753.17 935.617 -788.251 919.138C-819.887 904.27 -844.786 880.914 -873.559 861.187C-972.945 792.614 -1126.28 783.255 -1230.49 853.255" stroke="#2EA7E0" stroke-width="0.552088" stroke-miterlimit="10"/>
<path d="M3688.17 31.8604C3480.42 209.33 3244.42 369.218 2983.79 477.256C2885.16 518.472 2784.07 544.681 2680.82 568.432C2558.89 596.485 2434.36 598.967 2308.98 595.952C2223.29 593.911 2137.15 589.144 2051.05 587.706C1881.09 584.854 1710.53 595.882 1547.97 618.508C1452.93 631.74 1360.83 649.519 1272.44 671.159C1209.81 686.49 1145.51 704.315 1080.17 721.026C987.881 744.637 893.11 765.222 795.023 779.672C760.092 784.821 724.872 789.251 689.501 792.081C541.732 803.458 385.218 738.294 245.508 699.502C208.375 689.192 172.436 680.68 137.981 675.763C-1.60121 655.816 -146.773 669.906 -284.233 714.74C-307.868 722.418 -331.34 731.023 -354.65 740.451C-437.789 774.094 -519.061 818.116 -598.28 867.392C-645.295 896.663 -690.523 934.759 -740.75 949.418C-771.784 958.499 -804.058 957.93 -839.626 942.483C-871.971 928.427 -897.925 906.184 -927.59 887.258C-1030 821.468 -1184.53 811.518 -1291.34 880.566" stroke="#2EA7E0" stroke-width="0.552088" stroke-miterlimit="10"/>
<path d="M3677.56 36.9971C3475.27 216.67 3241.87 378.136 2982.71 485.768C2882.2 527.877 2779.23 553.147 2674.34 578.509C2550.94 608.349 2424.68 612.767 2297.47 611.143C2210.5 610.065 2123.04 605.983 2035.59 604.707C1863.02 602.19 1689.83 611.503 1524.79 630.418C1428.3 641.481 1334.8 656.476 1244.99 674.742C1181.23 687.719 1115.94 702.853 1049.72 716.839C956.072 736.6 860.107 753.138 760.407 765.198C724.967 769.489 689.19 773.282 653.251 775.682C502.825 785.238 343.563 724.342 201.511 690.595C163.832 681.642 127.371 674.533 92.3944 670.926C-48.8228 656.349 -194.493 675.716 -331.756 725.409C-355.356 733.91 -378.782 743.35 -402.045 753.567C-485.045 790.051 -566.259 836.602 -646.128 887.292C-693.549 917.421 -739.484 955.703 -790.569 970.941C-822.16 980.381 -854.968 980.242 -891.011 965.804C-924.075 952.56 -951.072 931.442 -981.642 913.316C-1087.07 850.298 -1242.8 839.779 -1352.23 907.854" stroke="#2EA7E0" stroke-width="0.552088" stroke-miterlimit="10"/>
<path d="M3666.96 42.1338C3470.15 224.022 3239.33 387.065 2981.66 494.291C2879.27 537.304 2774.42 561.623 2667.87 588.609C2543.02 620.223 2415.01 626.59 2285.97 626.369C2197.74 626.242 2108.94 622.855 2020.16 621.754C1844.96 619.574 1669.15 627.17 1501.62 642.373C1403.67 651.257 1308.76 663.457 1217.56 678.371C1152.66 688.982 1086.4 701.437 1019.3 712.686C924.295 728.609 827.135 741.099 725.811 750.759C689.849 754.192 653.539 757.346 617.031 759.318C463.962 767.053 301.951 710.413 157.533 681.722C119.309 674.126 82.3379 668.42 46.8394 666.124C-96.013 656.893 -242.17 681.56 -379.236 736.112C-402.789 745.448 -426.169 755.7 -449.409 766.717C-532.27 806.042 -613.426 855.121 -693.945 907.238C-741.771 938.225 -788.403 976.681 -840.357 992.511C-872.504 1002.32 -905.857 1002.61 -942.365 989.183C-976.147 976.762 -1004.19 956.746 -1035.66 939.432C-1144.12 879.196 -1301.04 868.098 -1413.07 935.21" stroke="#2EA7E0" stroke-width="0.552088" stroke-miterlimit="10"/>
<path d="M3656.35 47.2833C3465.01 231.375 3236.78 395.995 2980.58 502.815C2876.31 546.721 2769.58 570.101 2661.38 598.699C2535.07 632.087 2405.32 640.402 2274.45 641.574C2184.94 642.409 2094.81 639.695 2004.7 638.767C1826.89 636.923 1648.45 642.815 1478.44 654.284C1379.04 660.999 1282.73 670.404 1190.12 681.966C1124.09 690.212 1056.84 699.988 988.856 708.5C892.496 720.573 794.142 729.027 691.195 736.287C654.722 738.861 617.855 741.378 580.779 742.92C425.054 748.835 260.295 696.439 113.523 672.828C74.7656 666.588 37.261 662.274 1.2406 661.3C-143.224 657.404 -289.892 687.382 -426.771 746.782C-450.29 756.941 -473.624 768.016 -496.818 779.834C-579.539 822 -660.626 873.619 -741.805 927.151C-790.026 958.996 -837.376 997.638 -890.189 1014.05C-922.893 1024.23 -956.791 1024.95 -993.774 1012.53C-1028.29 1000.93 -1057.36 982.028 -1089.74 965.502C-1201.21 908.05 -1359.34 896.361 -1473.97 962.51" stroke="#2EA7E0" stroke-width="0.552088" stroke-miterlimit="10"/>
<path d="M3645.75 52.4217C3459.89 238.717 3234.24 404.925 2979.52 511.328C2873.38 556.139 2764.77 578.568 2654.92 608.79C2527.14 643.952 2395.67 654.215 2262.94 656.778C2172.16 658.564 2080.71 656.546 1989.25 655.792C1808.83 654.285 1627.76 658.46 1455.26 666.218C1354.4 670.753 1256.68 677.351 1162.69 685.574C1095.52 691.442 1027.28 698.551 958.415 704.338C860.687 712.548 761.15 716.978 656.591 721.849C619.608 723.566 582.184 725.444 544.552 726.558C386.183 730.651 218.687 682.489 69.537 663.957C30.2346 659.074 -7.7804 656.152 -44.3343 656.5C-190.411 657.915 -337.589 693.228 -474.283 757.487C-497.767 768.481 -521.054 780.368 -544.201 792.985C-626.784 837.994 -707.812 892.14 -789.63 947.087C-838.256 979.791 -886.303 1018.62 -939.985 1035.61C-973.246 1046.16 -1007.69 1047.32 -1045.14 1035.9C-1080.38 1025.13 -1110.52 1007.39 -1143.77 991.608C-1258.38 937.183 -1417.57 924.67 -1534.83 989.857" stroke="#2EA7E0" stroke-width="0.552088" stroke-miterlimit="10"/>
<path d="M3635.14 57.5583C3454.74 246.068 3231.68 413.843 2978.46 519.84C2870.43 565.544 2759.93 587.021 2648.45 618.867C2519.2 655.792 2386 668.015 2251.44 671.97C2159.38 674.718 2066.6 673.384 1973.81 672.793C1790.77 671.622 1607.07 674.08 1432.08 678.128C1329.77 680.493 1230.63 684.274 1135.26 689.156C1066.95 692.647 997.728 697.077 927.995 700.139C828.91 704.488 728.179 704.905 621.996 707.364C584.491 708.234 546.534 709.463 508.322 710.147C347.297 712.42 177.064 668.479 25.5486 655.038C-14.2872 651.501 -52.8243 649.97 -89.9116 651.663C-237.6 658.366 -385.3 699.037 -521.797 768.144C-545.234 779.961 -568.475 792.683 -591.588 806.089C-674.031 853.939 -755.002 910.614 -837.468 966.987C-886.501 1000.55 -935.255 1039.55 -989.795 1057.13C-1023.6 1068.05 -1058.61 1069.67 -1096.51 1059.22C-1132.5 1049.3 -1163.66 1032.65 -1197.81 1017.65C-1315.44 966.013 -1475.84 952.92 -1595.69 1017.14" stroke="#2EA7E0" stroke-width="0.552088" stroke-miterlimit="10"/>
<path d="M3624.53 62.7079C3449.6 253.421 3229.13 422.784 2977.38 528.375C2867.49 574.984 2755.1 595.499 2641.97 628.98C2511.26 667.667 2376.32 681.839 2239.92 687.197C2146.6 690.896 2052.49 690.259 1958.36 689.841C1772.7 689.006 1586.39 689.76 1408.9 690.085C1305.13 690.27 1204.59 691.244 1107.81 692.787C1038.37 693.9 968.159 695.651 897.544 695.987C797.091 696.475 695.176 692.879 587.381 692.926C549.366 692.937 510.853 693.529 472.084 693.796C308.415 694.248 135.445 654.516 -18.4363 646.19C-58.8056 643.998 -97.8646 643.859 -135.474 646.886C-284.774 658.865 -432.984 704.906 -569.296 778.871C-592.699 791.524 -615.893 805.058 -638.971 819.264C-721.275 869.966 -802.176 929.158 -885.303 986.957C-934.742 1021.38 -984.191 1060.56 -1039.6 1078.72C-1073.96 1090.01 -1109.54 1092.08 -1147.9 1082.62C-1184.61 1073.56 -1216.8 1057.99 -1251.86 1043.79C-1372.51 994.948 -1534.1 981.251 -1656.58 1044.51" stroke="#2EA7E0" stroke-width="0.552088" stroke-miterlimit="10"/>
<path d="M3613.93 67.8446C3444.47 260.761 3226.38 431.203 2976.33 536.887C2864.46 584.168 2750.28 603.941 2635.51 639.057C2503.33 679.496 2366.66 695.639 2228.43 702.4C2133.83 707.062 2038.39 707.108 1942.92 706.853C1754.66 706.354 1565.72 705.392 1385.74 701.994C1280.52 700.011 1178.56 698.144 1080.4 696.369C1009.82 695.094 938.621 694.166 867.137 691.8C765.315 688.425 662.229 680.818 552.799 678.452C514.274 677.617 475.203 677.559 435.866 677.397C269.542 676.028 93.8463 640.495 -62.4122 637.282C-103.315 636.436 -142.896 637.688 -181.038 642.049C-331.951 659.294 -480.671 710.715 -616.785 789.528C-640.153 803.004 -663.301 817.361 -686.333 832.368C-768.498 885.911 -849.341 947.631 -933.118 1006.85C-982.962 1042.12 -1033.12 1081.5 -1089.39 1100.24C-1124.31 1111.89 -1160.44 1114.43 -1199.25 1105.94C-1236.71 1097.74 -1269.92 1083.25 -1305.87 1069.85C-1429.53 1023.8 -1592.33 1009.51 -1717.4 1071.81" stroke="#2EA7E0" stroke-width="0.552088" stroke-miterlimit="10"/>
<path d="M3603.32 72.9829C3439.34 268.115 3223.83 440.122 2975.24 545.4C2861.5 593.574 2745.44 612.384 2629.03 649.135C2495.37 691.325 2356.97 709.44 2216.91 717.593C2121.04 723.206 2024.28 723.948 1927.46 723.867C1736.58 723.693 1545.02 721.037 1362.55 713.917C1255.87 709.753 1152.49 705.056 1052.94 699.965C981.215 696.289 909.046 692.706 836.681 687.614C733.49 680.366 629.221 668.769 518.168 663.98C479.121 662.298 439.517 661.602 399.612 660.999C230.643 657.81 52.2106 626.475 -106.425 628.377C-147.873 628.875 -187.964 631.52 -226.64 637.214C-379.176 659.7 -528.395 716.526 -664.324 800.198C-687.646 814.498 -710.747 829.678 -733.744 845.485C-815.77 901.87 -896.555 966.129 -980.981 1026.76C-1031.23 1062.88 -1082.08 1102.44 -1139.22 1121.77C-1174.7 1133.8 -1211.4 1136.81 -1250.65 1129.29C-1288.86 1121.96 -1323.07 1108.52 -1359.94 1095.92C-1486.61 1052.65 -1650.61 1037.79 -1778.3 1099.11" stroke="#2EA7E0" stroke-width="0.552088" stroke-miterlimit="10"/>
<path d="M3592.72 78.1309C3434.2 275.466 3221.29 449.062 2974.19 553.923C2858.57 602.99 2740.61 620.838 2622.57 659.235C2487.44 703.177 2347.31 723.263 2205.42 732.807C2108.27 739.383 2010.19 740.809 1912.04 740.89C1718.54 741.052 1524.35 736.68 1339.39 725.849C1231.26 719.517 1126.47 711.979 1025.53 703.571C952.664 697.506 879.51 691.243 806.263 683.438C701.715 672.305 596.252 656.731 483.587 649.517C444.029 646.989 403.869 645.644 363.407 644.612C191.782 639.602 10.6249 612.441 -150.388 619.481C-192.37 621.313 -232.983 625.349 -272.192 632.4C-426.34 660.117 -576.081 722.358 -711.813 810.89C-735.1 826.024 -758.155 842.028 -781.105 858.623C-862.992 917.849 -943.707 984.637 -1028.79 1046.69C-1079.45 1083.68 -1131 1123.42 -1189.01 1143.33C-1225.04 1155.73 -1262.31 1159.23 -1302.01 1152.65C-1340.96 1146.19 -1376.2 1133.82 -1413.97 1122.03C-1543.66 1081.54 -1708.86 1066.08 -1839.15 1126.46" stroke="#2EA7E0" stroke-width="0.552088" stroke-miterlimit="10"/>
<path d="M3582.11 83.2692C3429.06 282.808 3218.94 458.48 2973.11 562.436C2855.7 612.639 2735.77 629.281 2616.08 669.314C2479.48 715.006 2337.64 737.064 2193.91 748C2095.49 755.526 1996.07 757.637 1896.58 757.904C1700.46 758.402 1503.65 752.314 1316.21 737.76C1206.61 729.247 1100.42 718.868 998.076 707.155C924.076 698.678 849.936 689.76 775.819 679.253C669.903 664.246 563.257 644.682 448.968 635.045C408.901 631.67 368.184 629.675 327.153 628.214C152.885 621.383 -31.0097 598.398 -194.4 610.587C-236.915 613.764 -278.062 619.18 -317.781 627.576C-473.553 660.512 -623.793 728.181 -759.339 821.56C-782.579 837.517 -805.599 854.345 -828.515 871.74C-910.263 933.808 -990.92 1003.12 -1076.66 1066.59C-1127.72 1104.43 -1179.97 1144.36 -1238.83 1164.86C-1275.41 1177.61 -1313.26 1181.61 -1353.4 1175.98C-1393.09 1170.4 -1429.32 1159 -1468.02 1148.09C-1600.66 1110.12 -1767.12 1094.35 -1900.04 1153.75" stroke="#2EA7E0" stroke-width="0.552088" stroke-miterlimit="10"/>
<path d="M3571.49 88.4075C3423.92 290.161 3216.39 467.411 2972.04 570.961C2852.77 622.057 2730.94 637.736 2609.61 679.416C2471.54 726.848 2327.97 750.877 2182.4 763.228C2082.71 771.717 1981.96 774.512 1881.13 774.941C1682.4 775.776 1482.96 767.983 1293.02 749.706C1181.98 739.025 1074.37 725.793 970.637 710.774C895.5 699.896 820.385 688.299 745.376 675.09C638.103 656.199 530.263 632.657 414.362 620.596C373.784 616.374 332.521 613.73 290.923 611.84C113.998 603.189 -72.6329 584.355 -238.378 601.704C-281.438 606.216 -323.094 613.011 -363.348 622.764C-520.754 660.907 -671.481 734.015 -806.841 832.253C-830.047 849.046 -853.009 866.685 -875.89 884.869C-957.499 949.778 -1038.09 1021.62 -1124.48 1086.52C-1175.95 1125.22 -1228.9 1165.32 -1288.63 1186.4C-1325.76 1199.53 -1364.18 1204.03 -1404.76 1199.33C-1445.2 1194.65 -1482.45 1184.28 -1522.05 1174.17C-1657.7 1138.98 -1825.37 1122.63 -1960.9 1181.07" stroke="#2EA7E0" stroke-width="0.552088" stroke-miterlimit="10"/>
<path d="M3560.89 93.5571C3418.8 297.514 3213.85 476.341 2970.99 579.485C2849.83 631.486 2726.12 646.179 2603.15 689.506C2463.6 738.677 2318.31 764.689 2170.91 778.432C2069.94 787.872 1967.87 791.362 1865.71 791.965C1664.36 793.137 1462.29 783.627 1269.88 761.639C1157.37 748.778 1048.37 732.693 943.233 714.381C866.96 701.091 790.86 686.838 714.98 670.916C606.339 648.127 497.316 620.631 379.791 606.146C338.691 601.078 296.884 597.785 254.717 595.465C75.1368 584.993 -114.231 570.311 -282.342 592.821C-325.935 598.654 -368.125 606.842 -408.9 617.952C-567.942 661.279 -719.156 739.848 -854.319 842.935C-877.49 860.55 -900.406 879.013 -923.241 897.997C-1004.71 965.747 -1085.24 1040.13 -1172.28 1106.43C-1224.15 1145.99 -1277.81 1186.28 -1338.39 1207.94C-1376.08 1221.44 -1415.06 1226.45 -1456.1 1222.68C-1497.28 1218.9 -1535.55 1209.56 -1576.06 1200.25C-1714.74 1167.84 -1883.59 1150.91 -2021.72 1208.39" stroke="#2EA7E0" stroke-width="0.552088" stroke-miterlimit="10"/>
<path d="M3550.28 98.6937C3413.66 304.854 3211.3 485.258 2969.91 587.996C2846.88 640.89 2721.26 654.609 2596.66 699.594C2455.64 750.505 2308.61 778.501 2159.38 793.635C2057.14 804.037 1953.74 808.212 1850.24 808.978C1646.28 810.485 1441.58 799.271 1246.67 773.549C1132.72 758.519 1022.3 739.569 915.772 717.964C838.374 702.262 761.277 685.342 684.516 666.728C574.518 640.055 464.299 608.592 345.163 591.672C303.553 585.758 261.189 581.815 218.465 579.066C36.2411 566.773 -155.875 556.243 -326.352 583.925C-370.49 591.092 -413.191 600.66 -454.499 613.127C-615.188 661.637 -766.889 745.669 -901.855 853.615C-924.979 872.065 -947.86 891.351 -970.649 911.124C-1051.98 981.727 -1132.45 1058.63 -1220.14 1126.35C-1272.42 1166.77 -1326.77 1207.24 -1388.22 1229.5C-1426.47 1243.37 -1466.02 1248.89 -1507.5 1246.05C-1549.43 1243.17 -1588.71 1234.86 -1630.13 1226.35C-1771.82 1196.72 -1941.88 1179.21 -2082.62 1235.73" stroke="#2EA7E0" stroke-width="0.552088" stroke-miterlimit="10"/>
<path d="M3539.69 103.831C3408.52 312.206 3208.75 494.187 2968.86 596.508C2843.94 650.306 2716.43 663.04 2590.2 709.672C2447.7 762.322 2298.95 792.3 2147.89 808.826C2044.37 820.18 1939.65 825.05 1834.82 825.99C1628.24 827.834 1420.92 814.903 1223.52 785.47C1108.11 768.26 996.304 746.457 888.37 721.559C809.835 703.444 731.763 683.857 654.11 662.541C542.755 631.971 431.342 596.554 310.582 577.199C268.45 570.449 225.552 565.845 182.249 562.667C-2.6309 548.554 -197.496 542.164 -370.327 575.018C-414.998 583.507 -458.232 594.467 -500.051 608.302C-662.398 661.996 -814.563 751.49 -949.344 864.283C-972.433 883.558 -995.256 903.667 -1018.02 924.24C-1099.22 997.684 -1179.61 1077.11 -1267.96 1146.27C-1320.63 1187.54 -1375.71 1228.19 -1438.02 1251.03C-1476.82 1265.27 -1516.94 1271.32 -1558.86 1269.38C-1601.54 1267.42 -1641.84 1260.12 -1684.16 1252.41C-1828.87 1225.57 -2000.12 1207.47 -2143.47 1263.02" stroke="#2EA7E0" stroke-width="0.552088" stroke-miterlimit="10"/>
<path d="M3529.07 108.98C3403.38 319.559 3206.2 503.117 2967.78 605.043C2840.99 659.735 2711.59 671.483 2583.72 719.784C2439.74 774.163 2289.27 806.136 2136.37 824.065C2031.59 836.381 1925.53 841.936 1819.36 843.038C1610.17 845.218 1400.22 830.571 1200.33 797.427C1083.47 778.048 970.256 753.369 860.907 725.189C781.247 704.662 702.19 682.407 623.655 658.39C510.955 623.923 398.325 584.551 275.953 562.76C233.31 555.164 189.856 549.911 145.996 546.304C-41.528 530.37 -239.153 528.109 -414.338 566.147C-459.555 575.97 -503.322 588.309 -545.651 603.501C-709.657 662.356 -862.285 757.336 -996.881 874.988C-1019.94 895.097 -1042.71 916.018 -1065.43 937.391C-1146.49 1013.68 -1226.83 1095.63 -1315.82 1166.2C-1368.9 1208.33 -1424.67 1249.17 -1487.85 1272.59C-1527.2 1287.19 -1567.88 1293.77 -1610.27 1292.75C-1653.68 1291.7 -1695.01 1285.42 -1738.22 1278.52C-1885.97 1254.45 -2058.4 1235.78 -2204.36 1290.36" stroke="#2EA7E0" stroke-width="0.552088" stroke-miterlimit="10"/>
<path d="M3518.46 114.117C3398.25 326.899 3203.65 512.046 2966.71 613.555C2838.05 669.151 2706.75 679.913 2577.25 729.862C2431.79 785.968 2279.61 819.936 2124.87 839.256C2018.81 852.523 1911.43 858.762 1803.91 860.05C1592.1 862.566 1379.54 846.215 1177.16 809.336C1058.84 787.777 944.233 760.234 833.481 728.771C752.696 705.821 672.642 680.91 593.226 654.202C479.169 615.839 365.344 572.524 241.36 548.287C198.196 539.856 154.196 533.953 109.768 529.917C-80.4118 512.162 -280.785 514.017 -458.313 557.251C-504.075 568.396 -548.364 582.115 -591.215 598.676C-756.89 662.691 -909.971 763.157 -1044.37 885.668C-1067.38 906.6 -1090.12 928.345 -1112.79 950.518C-1193.72 1029.64 -1273.99 1114.13 -1363.64 1186.12C-1417.12 1229.11 -1473.6 1270.13 -1537.64 1294.14C-1577.54 1309.11 -1618.78 1316.22 -1661.62 1316.1C-1705.77 1315.99 -1748.12 1310.71 -1792.24 1304.6C-1943 1283.32 -2116.64 1264.06 -2265.2 1317.68" stroke="#2EA7E0" stroke-width="0.552088" stroke-miterlimit="10"/>
<path d="M3507.86 119.255C3393.12 334.253 3201.11 520.965 2965.64 622.068C2835.11 678.557 2701.81 688.078 2570.77 739.94C2423.72 797.496 2269.94 833.726 2113.36 854.449C2006.03 868.679 1897.32 875.602 1788.47 877.052C1574.06 879.905 1358.86 861.837 1153.99 821.247C1034.21 797.52 918.22 767.101 806.053 732.356C724.143 706.981 643.103 679.415 562.805 650.005C447.403 607.746 332.314 560.731 206.765 533.803C163.067 524.606 118.546 517.973 73.5494 513.508C-119.275 493.932 -322.42 499.916 -502.29 548.346C-548.597 560.812 -593.408 575.923 -636.781 593.841C-804.126 663.017 -957.671 768.968 -1091.87 896.326C-1114.85 918.082 -1137.53 940.662 -1160.18 963.624C-1240.96 1045.59 -1321.17 1132.62 -1411.47 1206.03C-1465.37 1249.87 -1522.54 1291.07 -1587.45 1315.66C-1627.91 1331.01 -1669.71 1338.65 -1713 1339.44C-1757.89 1340.25 -1801.26 1335.98 -1846.28 1330.67C-2000.07 1312.17 -2174.9 1292.33 -2326.08 1344.99" stroke="#2EA7E0" stroke-width="0.552088" stroke-miterlimit="10"/>
<path d="M3497.25 124.405C3387.97 341.605 3198.56 529.895 2964.58 630.592C2832.16 687.986 2696.97 696.544 2564.3 750.042C2415.78 809.349 2260.26 847.55 2101.86 869.665C1993.25 884.846 1883.22 892.465 1773.03 894.089C1555.99 897.278 1338.17 877.505 1130.82 833.192C1009.58 807.285 892.208 774.001 778.626 735.974C695.592 708.176 613.624 677.804 532.375 645.842C415.709 599.477 299.321 548.694 172.171 519.353C127.963 509.31 82.8853 502.027 37.3205 497.133C-158.159 475.737 -364.065 485.838 -546.277 539.463C-593.129 553.252 -638.474 569.742 -682.345 589.04C-851.372 663.365 -1005.36 774.813 -1139.37 907.031C-1162.31 929.622 -1184.95 953.013 -1207.55 976.775C-1288.2 1061.58 -1368.34 1151.14 -1459.3 1225.96C-1513.6 1270.67 -1571.47 1312.05 -1637.25 1337.22C-1678.26 1352.94 -1720.62 1361.11 -1764.37 1362.79C-1810 1364.55 -1854.4 1361.26 -1900.32 1356.76C-2057.13 1341.05 -2233.16 1320.62 -2386.95 1372.32" stroke="#2EA7E0" stroke-width="0.552088" stroke-miterlimit="10"/>
<path d="M3486.65 129.541C3382.85 348.946 3196.02 538.824 2963.52 639.115C2829.23 697.402 2692.15 704.998 2557.85 760.13C2407.85 821.2 2250.61 861.361 2090.37 884.88C1980.5 901.023 1869.12 909.326 1757.59 911.112C1537.93 914.638 1317.5 893.148 1107.65 845.125C984.963 817.049 866.198 780.877 751.19 739.58C667.042 709.358 584.076 676.342 501.935 641.678C383.911 591.428 266.329 536.667 137.556 504.903C92.8258 494.013 47.2028 486.081 1.08141 480.758C-197.042 457.54 -405.731 471.747 -590.275 530.578C-637.672 545.689 -683.55 563.56 -727.932 584.226C-898.652 663.701 -1053.07 780.646 -1186.9 917.711C-1209.79 941.125 -1232.39 965.34 -1254.95 989.902C-1335.45 1077.55 -1415.54 1169.63 -1507.14 1245.88C-1561.84 1291.45 -1620.42 1333.01 -1687.05 1358.77C-1728.63 1374.85 -1771.54 1383.58 -1815.75 1386.15C-1862.1 1388.85 -1907.54 1386.56 -1954.37 1382.85C-2114.2 1369.91 -2291.41 1348.9 -2447.81 1399.64" stroke="#2EA7E0" stroke-width="0.552088" stroke-miterlimit="10"/>
<path d="M3476.04 134.678C3377.71 356.298 3193.47 547.741 2962.44 647.627C2826.27 706.818 2687.3 713.44 2551.36 770.219C2399.89 833.04 2240.92 875.172 2078.85 900.083C1967.7 917.188 1855 926.176 1742.14 928.136C1519.87 931.998 1296.8 908.792 1084.47 857.046C960.327 826.789 840.182 787.754 723.76 743.175C638.487 710.529 554.536 674.88 471.512 637.491C352.144 583.368 233.344 524.617 102.97 490.44C57.7299 478.704 11.5504 470.122 -35.1393 464.37C-235.919 439.332 -447.379 457.656 -634.242 521.683C-682.196 538.116 -728.596 557.367 -773.488 579.401C-945.901 664.013 -1100.74 786.466 -1234.39 928.391C-1257.25 952.64 -1279.79 977.667 -1302.31 1003.03C-1382.68 1093.53 -1462.7 1188.13 -1554.95 1265.81C-1610.06 1312.23 -1669.34 1353.97 -1736.84 1380.32C-1778.96 1396.76 -1822.43 1406.05 -1867.1 1409.51C-1914.18 1413.15 -1960.65 1411.84 -2008.39 1408.94C-2171.24 1398.79 -2349.65 1377.2 -2508.66 1426.96" stroke="#2EA7E0" stroke-width="0.552088" stroke-miterlimit="10"/>
<path d="M3465.43 139.828C3372.57 363.65 3190.91 556.683 2961.37 656.151C2823.32 716.235 2682.47 721.895 2544.89 780.309C2391.95 844.881 2231.25 888.985 2067.33 915.287C1954.91 933.343 1840.89 943.027 1726.68 945.161C1501.79 949.347 1276.1 924.448 1061.28 868.98C935.684 836.555 814.228 794.446 696.309 746.793C609.981 711.585 524.975 673.43 441.059 633.328C320.334 575.331 200.339 512.58 68.3414 475.991C22.5795 463.408 -24.1334 454.177 -71.3913 447.996C-274.815 421.137 -489.186 443.229 -678.253 512.812C-726.786 530.474 -773.685 551.198 -819.087 574.601C-993.205 664.362 -1148.48 792.312 -1281.91 939.084C-1304.74 964.157 -1327.23 990.018 -1349.72 1016.17C-1429.95 1109.51 -1509.91 1206.64 -1602.81 1285.73C-1658.33 1333 -1718.31 1374.94 -1786.67 1401.86C-1829.35 1418.68 -1873.36 1428.51 -1918.51 1432.86C-1966.31 1437.47 -2013.83 1437.13 -2062.46 1435.03C-2228.34 1427.67 -2407.94 1405.48 -2569.56 1454.29" stroke="#2EA7E0" stroke-width="0.552088" stroke-miterlimit="10"/>
<path d="M3454.83 144.966C3367.43 370.992 3188.36 565.602 2960.31 664.664C2820.39 725.653 2677.63 730.35 2538.42 790.399C2384 856.723 2221.58 902.786 2055.83 930.491C1942.13 949.511 1826.79 959.878 1711.24 962.175C1483.74 966.697 1255.42 940.082 1038.1 880.903C911.053 846.297 788.206 801.358 668.872 750.389C581.419 712.78 495.427 671.959 410.629 629.154C288.559 567.284 167.347 500.543 33.7373 461.53C-12.5349 448.089 -59.8046 438.22 -107.619 431.61C-313.699 402.93 -530.83 429.198 -722.239 503.917C-771.318 522.925 -818.796 544.925 -864.651 569.777C-1040.67 664.328 -1196.16 798.134 -1329.41 949.766C-1352.19 975.674 -1374.65 1002.35 -1397.09 1029.29C-1477.18 1125.47 -1557.08 1225.14 -1650.64 1305.64C-1706.56 1353.77 -1767.24 1395.89 -1836.47 1423.4C-1879.7 1440.59 -1924.26 1450.98 -1969.87 1456.2C-2018.39 1461.75 -2066.95 1462.39 -2116.48 1461.09C-2285.38 1456.51 -2466.18 1433.74 -2630.4 1481.59" stroke="#2EA7E0" stroke-width="0.552088" stroke-miterlimit="10"/>
<path d="M3444.22 150.104C3362.3 378.346 3185.81 574.521 2959.24 673.177C2817.44 735.059 2672.79 738.793 2531.94 800.478C2376.05 868.564 2211.9 916.587 2044.31 945.684C1929.35 965.654 1812.66 976.706 1695.79 979.188C1465.67 984.047 1234.73 955.716 1014.93 892.813C886.42 856.039 762.181 808.259 641.444 753.974C552.866 713.975 465.877 670.487 380.198 624.957C256.77 559.213 134.364 488.483 -0.857867 447.046C-47.6519 432.759 -95.4666 422.24 -143.849 415.201C-352.573 384.701 -572.476 415.155 -766.228 495C-815.851 515.341 -863.863 538.733 -910.228 564.942C-1087.91 664.746 -1243.86 803.934 -1376.93 960.424C-1399.67 987.155 -1422.08 1014.65 -1444.48 1042.39C-1524.43 1141.42 -1604.26 1243.61 -1698.48 1325.55C-1754.81 1374.53 -1816.19 1416.83 -1886.28 1444.93C-1930.07 1462.48 -1975.16 1473.43 -2021.25 1479.53C-2070.49 1486.05 -2120.09 1487.66 -2170.52 1487.16C-2342.44 1485.35 -2524.43 1462.02 -2691.27 1508.89" stroke="#2EA7E0" stroke-width="0.552088" stroke-miterlimit="10"/>
<path d="M3433.62 155.252C3357.17 385.697 3183.27 583.461 2958.17 681.711C2814.5 744.498 2667.96 747.258 2525.47 810.578C2368.11 880.415 2202.23 930.41 2032.81 960.91C1916.57 981.843 1798.56 993.579 1680.34 996.223C1447.61 1001.42 1214.05 971.382 991.745 904.757C861.789 865.803 736.146 815.193 613.995 757.591C524.292 715.192 436.317 669.036 349.745 620.792C224.972 551.175 101.348 476.444 -35.4858 432.595C-82.7901 417.461 -131.15 406.305 -180.101 398.825C-391.48 366.504 -614.143 401.144 -810.237 486.127C-860.406 507.814 -908.94 532.597 -955.827 560.14C-1135.17 665.197 -1291.58 809.777 -1424.46 971.127C-1447.17 998.682 -1469.53 1027 -1491.89 1055.54C-1571.7 1157.41 -1651.48 1262.13 -1746.34 1345.48C-1803.07 1395.32 -1865.15 1437.8 -1936.11 1466.48C-1980.46 1484.41 -2026.07 1496.01 -2072.66 1502.9C-2122.6 1510.47 -2173.26 1512.95 -2224.6 1513.27C-2399.54 1514.24 -2582.73 1490.33 -2752.17 1536.24" stroke="#2EA7E0" stroke-width="0.552088" stroke-miterlimit="10"/>
<path d="M3423.01 160.391C3352.03 393.039 3180.72 592.38 2957.11 690.224C2811.55 753.904 2663.13 755.701 2518.99 820.668C2360.16 892.256 2192.56 944.223 2021.31 976.115C1672.48 1041.08 1307.56 1022.76 968.574 916.68C740.553 845.323 525.764 736.891 319.326 616.606C193.196 543.116 68.3772 464.395 -70.0682 418.123C-324.588 333.059 -609.853 366.273 -854.202 477.222C-1098.55 588.17 -1304.52 772.065 -1471.94 981.797C-1623.89 1172.12 -1760.36 1396.12 -1985.89 1488.02C-2243.82 1593.11 -2543.53 1493.13 -2813 1563.54" stroke="#2EA7E0" stroke-width="0.552088" stroke-miterlimit="10"/>
<path d="M2884.57 1631C2887.41 1336.96 2783.44 1043.02 2596.35 816.169C2543.12 751.631 2480.69 690.608 2401.97 662.299C2174.51 580.517 1931.62 759.297 1740.37 860.806C1509.58 983.294 1281.39 1111.66 1041.09 1215.03C906.183 1273.06 747.733 1322.31 617.232 1254.95C485.083 1186.74 434.799 1027.91 380.165 889.589C316.509 728.414 228.847 573.153 100.166 457.089C-28.5145 341.026 -202.47 267.756 -374.733 286.648C-509.629 301.446 -632.546 369.891 -744.794 446.165C-1039.72 646.585 -1290.27 911.914 -1473.49 1217.83" stroke="#2EA7E0" stroke-width="0.552088" stroke-miterlimit="10"/>
<path d="M2891.94 1618.29C2894.46 1358.41 2803.04 1104.06 2640.95 885.923C2625.89 865.663 2610.4 845.739 2594.23 826.361C2541.09 762.704 2479.19 702.458 2401.58 673.929C2177.14 591.323 1937.96 760.756 1746.98 858.623C1577.66 945.393 1409.54 1037.01 1235.44 1119.94C1175.05 1148.83 1114.13 1176.65 1052.43 1202.89C918.602 1259.81 762.03 1308.4 632.503 1244.19C501.352 1179.17 449.432 1026.48 393.29 893.577C327.86 738.722 239.189 589.491 110.752 477.904C66.0337 439.054 15.9924 405.191 -37.4583 378.321C-137.471 328.013 -249.429 302.151 -360.679 313.911C-494.312 328.036 -616.336 393.71 -727.865 466.504C-953.659 613.775 -1153.19 796.579 -1317.68 1007.16C-1366.77 1069.99 -1412.73 1135.28 -1455.3 1202.86" stroke="#2EA7E0" stroke-width="0.552088" stroke-miterlimit="10"/>
<path d="M2899.31 1605.59C2901.74 1354.37 2805.45 1114.12 2638.76 895.201C2623.62 875.335 2608.22 855.666 2592.11 836.578C2539.03 773.814 2477.69 714.333 2401.18 685.573C2179.73 602.132 1944.3 762.229 1753.58 856.467C1586.04 939.246 1419.39 1028.44 1245.38 1109.62C1185.43 1137.82 1124.96 1165.05 1063.76 1190.79C931.012 1246.6 776.308 1294.52 647.766 1233.45C517.612 1171.6 464.057 1025.06 406.42 897.59C339.227 749.055 249.523 605.855 121.341 498.756C76.7044 461.471 26.9067 428.965 -26.1845 403.185C-125.49 354.895 -236.415 330.007 -346.61 341.21C-478.979 354.674 -600.099 417.565 -710.92 486.869C-935.369 627.042 -1133.59 799.803 -1298.55 1000.7C-1347.78 1060.64 -1394.04 1123.07 -1437.09 1187.91" stroke="#2EA7E0" stroke-width="0.552088" stroke-miterlimit="10"/>
<path d="M2906.68 1592.88C2909.03 1350.33 2807.94 1124.16 2636.58 904.468C2621.37 884.973 2606.07 865.571 2590.02 846.784C2537.02 784.902 2476.19 726.21 2400.81 697.217C2182.38 612.953 1950.72 763.714 1760.2 854.299C1594.47 933.101 1429.08 1019.45 1255.36 1099.3C1195.77 1126.69 1135.83 1153.46 1075.12 1178.68C943.445 1233.38 790.608 1280.64 663.063 1222.71C533.907 1164.04 478.717 1023.66 419.572 901.603C350.604 759.389 259.892 622.219 131.965 519.597C87.3979 483.878 37.8552 452.728 -14.8765 428.026C-113.486 381.754 -223.356 357.841 -332.519 368.499C-463.624 381.302 -583.839 441.409 -693.953 507.223C-917.068 640.31 -1113.96 803.017 -1279.41 994.24C-1328.77 1051.3 -1375.32 1110.86 -1418.85 1172.97" stroke="#2EA7E0" stroke-width="0.552088" stroke-miterlimit="10"/>
<path d="M2914.05 1580.18C2916.31 1346.29 2810.46 1134.19 2634.37 913.744C2619.1 894.632 2603.87 875.485 2587.88 857C2534.95 796.011 2474.67 738.084 2400.4 708.859C2184.99 623.771 1957.12 765.221 1766.79 852.14C1602.89 926.988 1438.86 1010.75 1265.29 1088.98C1206.12 1115.65 1146.66 1141.86 1086.44 1166.57C955.843 1220.17 804.884 1266.77 678.314 1211.97C550.155 1156.49 493.33 1022.26 432.677 905.614C361.935 769.72 270.214 638.569 142.531 540.435C98.0443 506.27 48.7571 476.489 -3.62673 452.866C-101.529 408.623 -210.356 385.684 -318.486 395.774C-448.338 407.904 -567.649 465.24 -677.044 527.562C-898.814 653.553 -1094.4 806.216 -1260.33 987.756C-1309.85 1041.93 -1356.69 1098.62 -1400.69 1158" stroke="#2EA7E0" stroke-width="0.552088" stroke-miterlimit="10"/>
<path d="M2921.41 1567.47C2923.59 1342.25 2813.04 1144.2 2632.18 923.012C2616.85 904.271 2601.7 885.403 2585.77 867.207C2532.92 807.1 2473.16 749.95 2400.01 720.505C2187.61 634.594 1963.57 766.742 1773.39 849.986C1611.34 920.913 1448.67 1002.07 1275.24 1078.67C1216.49 1104.62 1157.5 1130.27 1097.78 1154.48C968.264 1206.97 819.172 1252.9 693.588 1201.25C566.426 1148.95 507.977 1020.87 445.805 909.641C373.3 780.055 280.559 654.947 153.119 561.3C108.714 528.701 59.6703 500.277 7.64599 477.732C-89.5488 435.507 -197.343 413.543 -304.419 423.087C-433.007 434.556 -551.412 489.12 -660.1 547.952C-880.525 666.857 -1074.8 809.466 -1241.2 981.334C-1290.86 1032.62 -1338 1086.45 -1382.48 1143.09" stroke="#2EA7E0" stroke-width="0.552088" stroke-miterlimit="10"/>
<path d="M2928.79 1554.76C2930.89 1338.2 2815.69 1154.17 2630 932.265C2614.63 913.896 2599.54 895.294 2583.66 877.4C2530.89 818.185 2471.67 761.8 2399.63 732.124C2190.23 645.389 1970.06 768.248 1780 847.792C1619.84 914.823 1458.48 993.347 1285.19 1068.31C1226.85 1093.55 1168.35 1118.64 1109.12 1142.32C980.684 1193.71 833.471 1238.97 708.861 1190.46C582.697 1141.34 522.612 1019.42 458.933 913.606C384.654 790.341 290.903 671.262 163.707 582.093C119.383 551.059 70.5946 523.992 18.9182 502.537C-77.5808 462.33 -184.32 441.339 -290.363 450.327C-417.687 461.136 -535.2 512.916 -643.168 568.257C-862.248 680.064 -1055.21 812.63 -1222.09 974.815C-1271.9 1023.21 -1319.33 1074.18 -1364.27 1128.08" stroke="#2EA7E0" stroke-width="0.552088" stroke-miterlimit="10"/>
<path d="M2936.15 1542.06C2938.16 1334.16 2818.38 1164.15 2627.8 941.544C2612.37 923.533 2597.35 905.21 2581.54 887.617C2528.84 829.284 2470.15 773.677 2399.22 743.779C2192.84 656.21 1976.56 769.826 1786.6 845.648C1628.35 908.805 1468.3 984.685 1295.13 1058.01C1237.21 1082.54 1179.18 1107.06 1120.45 1130.24C993.092 1180.51 847.746 1225.11 724.122 1179.75C598.955 1133.81 537.236 1018.03 472.06 917.642C396.018 800.698 301.247 687.65 174.306 602.968C130.064 573.488 81.5183 547.789 30.2014 527.413C-65.5901 489.224 -171.286 469.219 -276.297 477.65C-402.357 487.786 -518.965 536.795 -626.237 588.646C-843.972 693.367 -1035.62 815.878 -1202.99 968.391C-1252.94 1013.9 -1300.67 1062 -1346.09 1113.17" stroke="#2EA7E0" stroke-width="0.552088" stroke-miterlimit="10"/>
<path d="M2943.53 1529.35C2945.45 1330.11 2821.15 1174.07 2625.62 950.808C2610.16 933.158 2595.19 915.124 2579.43 897.821C2526.81 840.381 2468.65 785.55 2398.84 755.421C2195.47 667.029 1983.12 771.402 1793.2 843.478C1636.91 902.797 1478.12 975.997 1305.08 1047.68C1247.6 1071.49 1190.03 1095.45 1131.79 1118.12C1005.51 1167.29 862.043 1211.22 739.393 1169.01C615.223 1126.25 551.869 1016.62 485.186 921.653C407.37 811.029 311.578 704.012 184.892 623.807C140.73 595.892 92.4404 571.55 41.4714 552.253C-53.6127 516.093 -158.264 497.051 -262.243 504.937C-387.039 514.412 -502.743 560.637 -609.308 609.009C-825.697 706.633 -1016.04 819.101 -1183.88 961.93C-1233.98 1004.55 -1282.01 1049.78 -1327.9 1098.23" stroke="#2EA7E0" stroke-width="0.552088" stroke-miterlimit="10"/>
<path d="M2950.89 1516.64C2952.74 1326.07 2823.96 1183.97 2623.43 960.074C2607.93 942.783 2593.01 925.028 2577.32 908.027C2524.77 851.468 2467.15 797.414 2398.46 767.053C2198.09 677.837 1989.7 773.003 1799.82 841.309C1645.5 896.824 1487.96 967.334 1315.04 1037.36C1257.97 1060.47 1200.88 1083.85 1143.13 1106.01C1017.93 1154.07 876.334 1197.34 754.669 1158.27C631.497 1118.69 566.507 1015.22 498.316 925.666C418.726 821.362 321.925 720.375 195.483 644.658C151.403 618.31 103.356 595.324 52.7465 577.105C-41.6419 542.964 -145.25 524.907 -248.174 532.225C-371.705 541.027 -486.516 584.481 -592.362 629.362C-807.406 719.9 -996.438 822.313 -1164.76 955.47C-1215 995.202 -1263.32 1037.57 -1309.67 1083.28" stroke="#2EA7E0" stroke-width="0.552088" stroke-miterlimit="10"/>
<path d="M2958.27 1503.94C2960.03 1322.03 2826.84 1193.85 2621.24 969.342C2605.72 952.399 2590.84 934.934 2575.2 918.222C2522.73 862.556 2465.64 809.268 2398.05 778.687C2200.71 688.647 1996.3 774.628 1806.41 839.13C1654.08 890.876 1497.79 958.661 1324.97 1027.01C1268.33 1049.42 1211.7 1072.23 1154.45 1093.88C1030.33 1140.84 890.61 1183.43 769.92 1147.51C647.745 1111.1 581.12 1013.79 511.422 929.657C430.069 831.674 332.248 736.717 206.049 665.476C162.05 640.682 114.247 619.053 63.9966 601.925C-29.6843 569.801 -132.248 552.718 -234.14 559.491C-356.419 567.632 -470.314 608.303 -575.452 649.693C-789.151 733.134 -976.872 825.492 -1145.68 948.978C-1196.06 985.821 -1244.68 1025.32 -1291.51 1068.3" stroke="#2EA7E0" stroke-width="0.552088" stroke-miterlimit="10"/>
<path d="M2965.63 1491.23C2967.31 1317.98 2829.76 1203.67 2619.04 978.607C2603.5 962.011 2588.66 944.848 2573.08 928.426C2520.69 873.642 2464.13 821.13 2397.67 790.317C2203.34 699.454 2002.94 776.296 1813.01 836.96C1662.72 884.972 1507.63 949.997 1334.93 1016.69C1278.72 1038.4 1222.55 1060.63 1165.81 1081.77C1042.76 1127.62 904.908 1169.56 785.215 1136.77C664.037 1103.55 595.789 1012.38 524.571 933.68C441.444 842.005 342.614 753.091 216.67 686.326C172.752 663.098 125.204 642.826 75.3019 626.787C-17.6716 596.681 -119.192 580.573 -220.051 586.789C-341.067 594.269 -454.068 632.157 -558.488 670.067C-770.841 746.422 -957.252 828.726 -1126.53 942.528C-1177.06 976.484 -1225.98 1013.12 -1273.27 1053.36" stroke="#2EA7E0" stroke-width="0.552088" stroke-miterlimit="10"/>
<path d="M2973 1478.53C2974.59 1313.95 2832.74 1213.46 2616.85 987.886C2601.3 971.639 2586.52 954.73 2570.96 938.645C2518.75 884.649 2462.62 833.019 2397.27 801.974C2205.96 710.276 2009.6 778.014 1819.63 834.817C1671.37 879.141 1517.48 941.382 1344.88 1006.38C1289.1 1027.4 1233.41 1049.04 1177.14 1069.67C1055.17 1114.41 919.197 1155.68 800.478 1126.03C680.298 1095.99 610.414 1010.98 537.701 937.694C452.799 852.34 352.96 769.456 227.259 707.18C183.423 685.516 136.118 666.602 86.5757 651.641C-5.70195 623.565 -106.179 608.431 -205.983 614.09C-325.734 620.898 -437.831 656.014 -541.543 690.434C-752.551 759.691 -937.652 831.952 -1107.41 936.082C-1158.08 967.15 -1207.29 1000.92 -1255.06 1038.44" stroke="#2EA7E0" stroke-width="0.552088" stroke-miterlimit="10"/>
<path d="M2980.37 1465.82C2981.88 1309.9 2835.79 1223.19 2614.66 997.151C2599.1 981.24 2584.34 964.645 2568.85 948.849C2516.72 895.735 2461.11 844.882 2396.88 813.605C2208.56 721.084 2016.29 779.765 1826.22 832.635C1680.04 873.306 1527.31 932.729 1354.83 996.049C1299.48 1016.37 1244.25 1037.43 1188.48 1057.55C1067.59 1101.18 933.482 1141.79 815.749 1115.28C696.566 1088.42 625.047 1009.56 550.826 941.694C464.161 862.66 363.302 785.807 237.845 728.007C194.078 707.898 147.04 690.351 97.8342 676.47C6.26401 650.411 -93.1692 636.251 -191.941 641.354C-310.428 647.5 -421.621 679.833 -524.625 710.762C-734.288 772.934 -918.078 835.14 -1088.32 929.587C-1139.14 957.768 -1188.65 988.674 -1236.89 1023.45" stroke="#2EA7E0" stroke-width="0.552088" stroke-miterlimit="10"/>
<path d="M2987.74 1453.11C2989.16 1305.85 2838.89 1232.87 2612.47 1006.42C2596.89 990.841 2582.17 974.547 2566.73 959.054C2514.68 906.821 2459.61 856.745 2396.49 825.247C2211.19 731.903 2023 781.561 1832.82 830.477C1688.73 867.542 1537.17 924.112 1364.77 985.727C1309.85 1005.35 1255.08 1025.83 1199.81 1045.44C1080 1087.97 947.772 1127.91 831.013 1104.54C712.828 1080.87 639.673 1008.16 563.945 945.706C475.506 872.992 373.626 802.169 248.424 748.857C204.738 730.314 157.944 714.124 109.097 701.321C18.2344 677.281 -80.1549 664.095 -177.895 668.652C-295.118 674.138 -405.417 703.687 -507.715 731.137C-716.032 786.212 -898.512 838.375 -1069.23 923.149C-1120.19 948.443 -1170 976.484 -1218.71 1008.53" stroke="#2EA7E0" stroke-width="0.552088" stroke-miterlimit="10"/>
<path d="M2995.11 1440.41C2996.46 1301.82 2842.05 1242.51 2610.29 1015.68C2594.71 1000.44 2580.01 984.451 2564.63 969.259C2512.66 917.907 2458.11 868.608 2396.1 836.879C2213.82 742.711 2029.76 783.405 1839.43 828.297C1697.45 861.789 1547.02 915.484 1374.71 975.394C1320.23 994.332 1265.92 1014.22 1211.15 1033.32C1092.42 1074.73 962.056 1114.01 846.283 1093.79C729.095 1073.3 654.306 1006.73 577.069 949.706C486.868 883.313 383.967 818.521 259.021 769.686C215.416 752.708 168.877 737.875 120.378 726.162C30.2109 704.139 -67.1347 691.939 -163.819 695.94C-279.778 700.753 -389.173 727.53 -490.763 751.49C-697.735 799.478 -878.904 841.587 -1050.1 916.678C-1101.21 939.072 -1151.31 964.249 -1200.49 993.566" stroke="#2EA7E0" stroke-width="0.552088" stroke-miterlimit="10"/>
<path d="M3002.48 1427.7C3003.73 1297.77 2845.27 1252.08 2608.08 1024.95C2592.51 1010.03 2577.82 994.356 2562.5 979.465C2510.6 929.006 2456.52 880.6 2395.7 848.523C2216.23 753.891 2036.51 785.319 1846.02 826.14C1706.16 856.119 1556.87 906.891 1384.65 965.073C1330.61 983.327 1276.76 1002.62 1222.48 1021.21C1104.83 1061.53 976.346 1100.13 861.547 1083.05C745.345 1065.74 668.932 1005.33 590.199 953.72C498.223 893.647 394.314 834.885 269.611 790.538C226.087 775.114 179.792 761.649 131.652 751.015C42.1929 731.022 -54.1088 719.784 -149.761 723.228C-264.467 727.38 -372.958 751.374 -473.829 771.843C-679.456 812.734 -859.315 844.8 -1031 910.219C-1082.24 929.725 -1132.65 952.038 -1182.3 978.63" stroke="#2EA7E0" stroke-width="0.552088" stroke-miterlimit="10"/>
<path d="M3009.85 1415C3011.02 1293.73 2848.54 1261.6 2605.9 1034.23C2590.33 1019.64 2575.65 1004.28 2560.4 989.683C2508.58 940.106 2455.04 892.477 2395.32 860.179C2218.87 764.712 2043.31 787.291 1852.65 823.996C1714.94 850.507 1566.76 898.321 1394.63 954.776C1341.03 972.357 1287.62 991.051 1233.83 1009.13C1117.26 1048.33 990.644 1086.27 876.831 1072.35C761.626 1058.22 683.589 1003.96 603.338 957.768C509.587 904.016 404.669 851.284 280.21 811.413C236.767 797.555 190.715 785.447 142.935 775.892C54.1831 757.916 -41.075 747.664 -135.695 750.552C-249.137 754.031 -356.723 775.265 -456.887 792.243C-661.169 826.049 -839.728 848.06 -1011.87 903.795C-1063.27 920.414 -1113.95 939.862 -1164.09 963.717" stroke="#2EA7E0" stroke-width="0.552088" stroke-miterlimit="10"/>
<path d="M3017.21 1402.29C3018.3 1289.68 2851.86 1271.05 2603.7 1043.49C2588.14 1029.23 2573.47 1014.19 2558.26 999.889C2506.52 951.205 2453.51 904.341 2394.91 871.811C2221.46 775.521 2050.08 789.321 1859.23 821.816C1723.67 844.906 1576.6 889.729 1404.55 944.432C1351.39 961.34 1298.44 979.42 1245.15 997.001C1129.66 1035.1 1004.92 1072.38 892.081 1061.59C777.873 1050.64 698.202 1002.53 616.443 961.758C520.929 914.314 414.99 867.613 290.774 832.23C247.413 819.938 201.616 809.187 154.184 800.71C66.1281 784.752 -28.0861 775.475 -121.663 777.806C-233.841 780.624 -340.522 799.075 -439.978 812.562C-642.915 839.27 -820.164 851.226 -992.786 897.301C-1044.32 911.032 -1095.3 927.616 -1145.91 948.734" stroke="#2EA7E0" stroke-width="0.552088" stroke-miterlimit="10"/>
<path d="M3024.59 1389.58C3025.6 1285.63 2855.25 1280.42 2601.52 1052.75C2585.97 1038.8 2571.3 1024.09 2556.16 1010.08C2504.5 962.279 2452.02 916.192 2394.53 883.442C2224.1 786.317 2056.91 791.408 1865.85 819.647C1732.45 839.362 1586.49 881.169 1414.52 934.11C1361.79 950.345 1309.3 967.822 1256.51 984.881C1142.09 1021.86 1019.22 1058.49 907.365 1050.83C794.154 1043.06 712.848 1001.11 629.581 965.758C532.293 924.635 425.345 883.964 301.385 853.07C258.104 842.331 212.551 832.949 165.479 825.561C78.13 811.622 -15.0405 803.318 -107.573 805.104C-218.487 807.261 -324.276 822.929 -423.013 832.925C-624.604 852.548 -800.543 854.45 -973.652 890.841C-1025.33 901.684 -1076.61 915.404 -1127.7 933.785" stroke="#2EA7E0" stroke-width="0.552088" stroke-miterlimit="10"/>
<path d="M3031.96 1376.88C3032.87 1281.59 2858.7 1289.73 2599.33 1062.02C2583.79 1048.39 2569.12 1034.01 2554.04 1020.3C2502.45 973.389 2450.5 928.067 2394.14 895.085C2226.71 797.125 2063.73 793.588 1872.45 817.478C1741.22 833.865 1596.36 872.61 1424.45 923.777C1372.18 939.34 1320.14 956.213 1267.84 972.762C1154.5 1008.64 1033.5 1044.59 922.64 1040.08C810.427 1035.5 727.484 999.691 642.71 969.759C543.648 934.956 435.68 900.316 311.974 873.898C268.775 864.724 223.477 856.699 176.753 850.39C90.1112 838.48 -2.01547 831.151 -93.5161 832.369C-203.166 833.853 -308.05 846.749 -406.08 853.266C-606.326 865.791 -780.954 857.65 -954.538 884.358C-1006.37 892.314 -1057.94 903.169 -1109.49 918.813" stroke="#2EA7E0" stroke-width="0.552088" stroke-miterlimit="10"/>
<path d="M3039.32 1364.17C3040.15 1277.54 2862.18 1298.96 2597.12 1071.29C2581.61 1057.95 2566.94 1043.91 2551.92 1030.5C2500.39 984.486 2449.06 939.826 2393.73 906.728C2229.52 807.608 2070.54 795.849 1879.03 815.32C1749.97 828.437 1606.22 864.074 1434.39 913.466C1382.55 928.368 1330.97 944.627 1279.17 960.666C1166.91 995.434 1047.78 1030.72 937.899 1029.36C826.683 1027.95 742.106 998.298 655.836 973.782C555.011 945.3 446.022 916.69 322.56 894.76C279.442 887.152 234.388 880.484 188.023 875.254C102.077 865.362 11.0055 859.006 -79.463 859.679C-187.861 860.502 -291.84 870.615 -389.162 873.642C-588.063 879.081 -761.38 860.885 -935.44 877.921C-987.407 882.989 -1039.28 890.968 -1091.3 903.898" stroke="#2EA7E0" stroke-width="0.552088" stroke-miterlimit="10"/>
<path d="M3046.69 1351.48C3047.45 1273.51 2865.75 1308.13 2594.94 1080.57C2579.44 1067.55 2564.77 1053.84 2549.81 1040.72C2498.35 995.597 2447.56 951.702 2393.35 918.372C2232.15 818.418 2077.37 798.192 1885.66 813.164C1758.76 823.068 1616.13 855.563 1444.36 903.146C1392.96 917.387 1341.83 933.031 1290.51 948.56C1179.33 982.226 1062.07 1016.84 953.174 1018.62C842.956 1020.39 756.743 996.896 668.965 977.796C566.366 955.634 456.368 933.054 333.15 915.601C290.102 909.547 245.314 904.236 199.297 900.096C114.059 892.221 24.0192 886.84 -65.394 886.968C-172.527 887.13 -275.602 894.459 -372.217 893.995C-569.773 892.337 -741.78 864.098 -916.327 871.451C-968.444 873.631 -1020.61 878.745 -1073.1 888.939" stroke="#2EA7E0" stroke-width="0.552088" stroke-miterlimit="10"/>
<path d="M3054.06 1338.77C3054.73 1269.46 2869.34 1317.18 2592.75 1089.82C2577.27 1077.1 2562.59 1063.73 2547.7 1050.91C2496.31 1006.68 2446.06 963.555 2392.96 930.004C2234.77 829.226 2084.17 800.616 1892.26 810.984C1767.52 817.722 1626.01 847.028 1454.29 892.813C1403.34 906.393 1352.66 921.411 1301.84 936.441C1191.74 968.994 1076.36 1002.95 968.435 1007.87C859.214 1012.83 771.378 995.47 682.081 981.797C577.708 965.955 466.701 949.406 343.737 936.441C300.77 931.953 256.226 927.998 210.569 924.948C126.026 919.092 37.0422 914.696 -51.3389 914.256C-157.208 913.745 -259.378 918.303 -355.286 914.348C-551.496 905.604 -722.193 867.311 -897.215 864.991C-949.472 864.284 -1001.94 866.534 -1054.9 873.991" stroke="#2EA7E0" stroke-width="0.552088" stroke-miterlimit="10"/>
<path d="M3061.43 1326.06C3062.03 1265.41 2873.02 1326.16 2590.56 1099.09C2575.1 1086.66 2560.38 1073.67 2545.57 1061.12C2494.18 1017.88 2444.54 975.419 2392.56 941.648C2237.38 840.047 2090.98 803.145 1898.85 808.827C1776.27 812.446 1635.89 838.551 1464.24 882.492C1413.74 895.423 1363.5 909.814 1313.18 924.334C1204.16 955.785 1090.64 989.069 983.708 997.129C875.485 1005.27 786.013 994.067 695.209 985.81C589.072 976.277 477.045 965.77 354.325 957.281C311.439 954.359 267.139 951.761 221.841 949.789C138.006 945.962 50.0653 942.53 -37.2836 941.544C-141.889 940.373 -243.166 942.147 -338.355 934.713C-533.22 918.872 -702.606 870.535 -878.104 858.532C-930.511 854.937 -983.266 854.323 -1036.71 859.043" stroke="#2EA7E0" stroke-width="0.552088" stroke-miterlimit="10"/>
<path d="M3068.8 1313.36C3069.3 1261.38 2876.73 1335.05 2588.37 1108.37C2572.93 1096.24 2558.22 1083.6 2543.47 1071.33C2492.15 1028.97 2443.05 987.293 2392.18 953.279C2240.02 850.854 2097.77 805.765 1905.47 806.646C1785.02 807.203 1645.79 830.049 1474.2 872.158C1424.13 884.439 1374.35 898.205 1324.52 912.202C1216.58 942.54 1104.95 975.174 998.984 986.365C891.758 997.684 800.651 992.639 708.339 989.798C600.429 986.586 487.392 982.109 364.916 978.097C322.111 976.728 278.066 975.499 233.115 974.606C149.988 972.797 63.0795 970.35 -23.2256 968.796C-126.567 966.964 -226.939 965.955 -321.42 955.03C-514.94 932.103 -683.016 873.712 -859.001 852.037C-911.547 845.554 -964.604 842.075 -1018.51 844.07" stroke="#2EA7E0" stroke-width="0.552088" stroke-miterlimit="10"/>
<path d="M3076.17 1300.64C3076.59 1257.33 2880.5 1343.84 2586.19 1117.63C2570.77 1105.79 2556.05 1093.5 2541.35 1081.53C2490.11 1040.06 2441.54 999.156 2391.79 964.922C2242.64 861.673 2104.52 808.489 1912.06 804.488C1793.73 802.03 1655.66 821.594 1484.14 861.836C1434.52 873.479 1385.19 886.607 1335.85 900.094C1228.99 929.33 1119.22 961.292 1014.24 975.637C908.014 990.134 815.273 991.247 721.465 993.821C611.791 996.929 497.734 998.483 375.502 998.959C332.778 999.156 288.976 999.284 244.385 999.469C161.954 999.678 76.1008 998.205 -9.16059 996.106C-111.238 993.601 -210.717 989.821 -304.479 975.405C-496.654 945.381 -663.419 876.935 -839.88 845.588C-892.565 836.218 -945.923 829.874 -1000.3 829.132" stroke="#2EA7E0" stroke-width="0.552088" stroke-miterlimit="10"/>
<path d="M3083.54 1287.95C3083.88 1253.29 2884.33 1352.54 2583.99 1126.91C2568.61 1115.36 2553.86 1103.41 2539.23 1091.75C2488.07 1051.17 2440.03 1011.03 2391.39 976.566C2245.26 872.483 2111.23 811.32 1918.68 802.332C1802.43 796.905 1665.57 813.152 1494.1 851.527C1444.92 862.533 1396.03 875.023 1347.2 888C1241.41 916.123 1133.52 947.423 1029.52 964.911C924.287 982.597 829.911 989.845 734.594 997.847C623.147 1007.28 508.069 1014.86 386.092 1019.81C343.45 1021.57 299.903 1023.06 255.648 1024.32C173.924 1026.55 89.1149 1026.05 4.88557 1023.4C-95.9391 1020.23 -194.502 1013.67 -287.557 995.771C-478.386 958.66 -643.841 880.16 -820.777 839.13C-873.613 826.872 -927.261 817.664 -982.115 814.184" stroke="#2EA7E0" stroke-width="0.552088" stroke-miterlimit="10"/>
<path d="M3090.91 1275.24C3091.17 1249.25 2888.2 1361.12 2581.8 1136.16C2566.45 1124.89 2551.7 1113.32 2537.12 1101.94C2486.02 1062.24 2438.52 1022.88 2391.01 988.198C2247.88 883.291 2117.91 814.242 1925.28 800.152C1811.1 791.802 1675.47 804.71 1504.04 841.182C1455.31 851.55 1406.88 863.391 1358.54 875.869C1253.83 902.89 1147.81 933.518 1044.8 954.149C940.567 975.012 844.555 988.418 747.732 1001.84C634.51 1017.58 518.424 1031.2 396.701 1040.64C354.14 1043.96 310.836 1046.81 266.942 1049.16C185.925 1053.42 102.148 1053.9 18.9623 1050.68C-80.5983 1046.84 -178.257 1037.51 -270.616 1016.12C-460.1 971.927 -624.244 883.372 -801.668 832.67C-854.643 817.524 -908.592 805.44 -963.91 799.236" stroke="#2EA7E0" stroke-width="0.552088" stroke-miterlimit="10"/>
<path d="M3098.28 1262.53C3098.44 1245.2 2892.12 1369.6 2579.61 1145.43C2564.29 1134.44 2549.52 1123.22 2535.01 1112.15C2483.99 1073.34 2437.03 1034.76 2390.62 999.829C2250.5 894.099 2124.53 817.269 1931.88 797.983C1819.73 786.757 1685.35 796.301 1514 830.86C1465.72 840.602 1417.73 851.793 1369.88 863.761C1266.25 889.669 1162.11 919.636 1060.08 943.41C956.839 967.45 859.192 987.015 760.86 1005.85C645.876 1027.92 528.769 1047.56 407.29 1061.48C364.81 1066.36 321.761 1070.57 278.214 1074C197.893 1080.28 115.172 1081.73 33.03 1077.97C-65.2666 1073.47 -162.032 1061.35 -253.672 1036.48C-441.811 985.182 -604.645 886.584 -782.543 826.198C-835.67 808.165 -889.909 793.216 -945.702 784.287" stroke="#2EA7E0" stroke-width="0.552088" stroke-miterlimit="10"/>
<path d="M3105.64 1249.83C3105.72 1241.16 2896.1 1377.97 2577.41 1154.71C2562.11 1143.99 2547.34 1133.15 2532.88 1122.36C2481.94 1084.44 2435.5 1046.63 2390.21 1011.48C2253.11 904.93 2131.07 820.423 1938.47 795.825C1828.3 781.758 1695.27 788.125 1523.92 820.539C1476.1 829.712 1428.55 840.196 1381.2 851.654C1278.65 876.46 1176.37 905.754 1075.33 932.67C973.086 959.9 873.816 985.611 773.965 1009.86C657.206 1038.25 539.09 1063.93 417.855 1082.33C375.456 1088.78 332.652 1094.34 289.464 1098.86C209.851 1107.15 128.173 1109.57 47.0629 1105.26C-49.9695 1100.1 -145.831 1085.21 -236.763 1056.84C-423.557 998.461 -585.08 889.808 -763.454 819.75C-816.719 798.829 -871.26 781.016 -927.518 769.349" stroke="#2EA7E0" stroke-width="0.552088" stroke-miterlimit="10"/>
<path d="M3113.02 1237.12C3113.02 1237.12 2900.13 1386.23 2575.23 1163.97C2250.33 941.717 2138.49 701.913 1533.89 810.218C1116.09 885.065 721.954 1068.65 300.761 1123.7C127.467 1146.35 -54.1546 1135.68 -219.807 1077.19C-405.255 1011.72 -565.468 893.021 -744.329 813.279C-797.745 789.471 -852.564 768.793 -909.309 754.39" stroke="#2EA7E0" stroke-width="0.552088" stroke-miterlimit="10"/>
</svg>
