<svg width="74" height="74" viewBox="0 0 74 74" fill="none" xmlns="http://www.w3.org/2000/svg">
<rect width="74" height="74" rx="20" fill="#03153E"/>
<path d="M46.304 53.2057C42.7109 55.9262 38.4225 57.3641 33.9025 57.3641C22.5061 57.3641 13.2344 48.1387 13.2344 36.7993C13.2344 25.4598 22.5061 16.2344 33.9025 16.2344C38.4225 16.2344 42.7109 17.6723 46.304 20.3929C49.3765 22.719 51.7605 25.909 53.1278 29.4872H55.5028C54.0473 25.1983 51.2833 21.3603 47.6528 18.6114C43.6682 15.5946 38.9134 14 33.9025 14C21.2741 14 11 24.2277 11 36.7993C11 49.3708 21.2741 59.5985 33.9025 59.5985C38.9134 59.5985 43.6682 58.0039 47.6528 54.9871C51.2833 52.2382 54.0474 48.4002 55.5028 44.1114H53.1278C51.7605 47.6895 49.3764 50.8795 46.304 53.2057Z" fill="white"/>
<path d="M33.9023 20.1949C24.7466 20.1949 17.2979 27.6436 17.2979 36.7993C17.2979 45.955 24.7465 53.4037 33.9023 53.4037C41.738 53.4037 48.3226 47.9477 50.0586 40.6354L48.699 37.9165H48.2291C47.6571 45.3201 41.4499 51.1693 33.9022 51.1693C25.9785 51.1693 19.5321 44.7229 19.5321 36.7993C19.5321 28.8757 25.9785 22.4293 33.9022 22.4293C41.4499 22.4293 47.6571 28.2786 48.2291 35.6821H48.699L50.0586 32.9632C48.3226 25.6509 41.738 20.1949 33.9023 20.1949Z" fill="white"/>
<path d="M33.9027 26.3898C28.1629 26.3898 23.4932 31.0595 23.4932 36.7993C23.4932 42.5391 28.1629 47.2089 33.9027 47.2089C39.2651 47.2089 43.693 43.133 44.2522 37.9165H41.9997C41.453 41.8975 38.0315 44.9745 33.9028 44.9745C29.3951 44.9745 25.7276 41.3072 25.7276 36.7993C25.7276 32.2915 29.395 28.6241 33.9028 28.6241C38.0315 28.6241 41.4531 31.7013 41.9997 35.6821H44.2522C43.693 30.4657 39.2651 26.3898 33.9027 26.3898Z" fill="white"/>
<path d="M33.9021 32.5846C31.5782 32.5846 29.6875 34.4753 29.6875 36.7992C29.6875 39.1232 31.5782 41.0139 33.9021 41.0139C35.8393 41.0139 37.4744 39.6998 37.9654 37.9164H35.5357C35.1785 38.437 34.5798 38.7795 33.9021 38.7795C32.8102 38.7795 31.9219 37.8911 31.9219 36.7992C31.9219 35.7073 32.8102 34.819 33.9021 34.819C34.5798 34.819 35.1786 35.1614 35.5357 35.682H37.9654C37.4744 33.8987 35.8393 32.5846 33.9021 32.5846Z" fill="white"/>
<path d="M60.5168 37.9165H61.8828C62.4998 37.9165 63 37.4163 63 36.7993C63 36.1823 62.4998 35.6821 61.8828 35.6821H60.5168L62.8753 31.1172C63.0542 30.7709 63.0397 30.3564 62.837 30.0233C62.6343 29.6904 62.2726 29.4872 61.8828 29.4872H52.4873C52.0641 29.4872 51.6772 29.7263 51.488 30.1048L48.6993 35.6821H34.1562C33.5393 35.6821 33.0391 36.1823 33.0391 36.7993C33.0391 37.4163 33.5393 37.9165 34.1562 37.9165H48.6993L51.488 43.4938C51.6772 43.8723 52.0641 44.1114 52.4873 44.1114H61.8828C62.2726 44.1114 62.6343 43.9081 62.837 43.5752C63.0398 43.2423 63.0543 42.8277 62.8753 42.4814L60.5168 37.9165ZM53.1777 31.7216H60.0481L58.0019 35.6821H51.1974L53.1777 31.7216ZM53.1777 41.877L51.1974 37.9165H58.0019L60.0481 41.877H53.1777Z" fill="#0AADFF"/>
</svg>
