<svg width="74" height="74" viewBox="0 0 74 74" fill="none" xmlns="http://www.w3.org/2000/svg">
<rect width="74" height="74" rx="20" fill="#03153E"/>
<path d="M50.103 27.808V18.541H52.1593C52.7763 18.541 53.2765 18.0408 53.2765 17.4238V12.1172C53.2765 11.5002 52.7763 11 52.1593 11H22.1173C21.5003 11 21.0001 11.5002 21.0001 12.1172V17.4238C21.0001 18.0408 21.5003 18.541 22.1173 18.541H24.1736V27.808C24.1736 28.0728 24.2677 28.3291 24.4391 28.5309L31.6278 37L24.439 45.4691C24.2676 45.6709 24.1735 45.9272 24.1735 46.192V55.459H22.1172C21.5002 55.459 21 55.9592 21 56.5762V61.8828C21 62.4998 21.5002 63 22.1172 63H52.1591C52.7761 63 53.2763 62.4998 53.2763 61.8828V56.5762C53.2763 55.9592 52.7761 55.459 52.1591 55.459H50.1028V46.192C50.1028 45.9272 50.0087 45.6709 49.8373 45.4691L42.6488 37L49.8375 28.5309C50.0089 28.3291 50.103 28.0729 50.103 27.808ZM23.2345 13.2344H51.042V16.3066H48.9858H25.2908H23.2345V13.2344ZM51.0421 60.7656H23.2345V57.6934H25.2908H48.9859H51.0421V60.7656ZM47.8687 27.3978L40.3317 36.2771C39.9778 36.694 39.9778 37.306 40.3317 37.7229L47.8687 46.6022V55.459H26.408V46.6022L33.945 37.7229C34.2989 37.306 34.2989 36.694 33.945 36.2771L26.408 27.3978V18.541H47.8687V27.3978Z" fill="white"/>
<path d="M42.7906 22.5015H31.4854C30.8684 22.5015 30.3682 23.0017 30.3682 23.6187V25.5333C30.3682 25.7981 30.4622 26.0544 30.6336 26.2562L36.0207 32.6029V36.6903C36.0207 37.3072 36.5209 37.8074 37.1379 37.8074C37.7549 37.8074 38.2551 37.3072 38.2551 36.6903V32.6029L43.6423 26.2561C43.8135 26.0543 43.9077 25.798 43.9077 25.5332V23.6186C43.9078 23.0017 43.4076 22.5015 42.7906 22.5015ZM41.6734 25.1231L37.1379 30.4663L32.6024 25.1231V24.7359H41.6733V25.1231H41.6734Z" fill="#0088E5"/>
<path d="M37.1387 45.2507C36.5217 45.2507 36.0215 44.7505 36.0215 44.1335V42.1656C36.0215 41.5487 36.5217 41.0485 37.1387 41.0485C37.7557 41.0485 38.2559 41.5487 38.2559 42.1656V44.1335C38.2559 44.7506 37.7557 45.2507 37.1387 45.2507Z" fill="#0088E5"/>
<path d="M37.1387 51.3486C36.5217 51.3486 36.0215 50.8484 36.0215 50.2314V49.296C36.0215 48.679 36.5217 48.1788 37.1387 48.1788C37.7557 48.1788 38.2559 48.679 38.2559 49.296V50.2314C38.2559 50.8484 37.7557 51.3486 37.1387 51.3486Z" fill="#0088E5"/>
</svg>
